<svg width="94" height="95" viewBox="0 0 94 95" fill="none" xmlns="http://www.w3.org/2000/svg">
<g clip-path="url(#clip0_505_1635)">
<path d="M82.3939 31.2255H75.618V17.8913C75.618 15.6079 74.7099 13.4797 73.2239 11.9238L68.8456 7.34236C65.13 3.51406 64.6611 2.43251 62.4481 1.3583C61.42 0.845156 60.0652 0.5 58.6993 0.5H26.7187C21.9547 0.5 18.0803 4.37621 18.0803 9.13845V55.7232H16.2585C13.5101 55.7232 11.2748 57.9584 11.2748 60.7068C11.2748 62.0746 11.8285 63.3131 12.7219 64.2138C11.8285 65.1145 11.2748 66.3531 11.2748 67.7208C11.2748 68.234 11.3468 68.5386 11.3727 68.7065C0.557899 69.8066 -3.75031 83.1925 4.1646 90.4576C6.55499 92.6523 9.72786 93.8963 13.1684 93.7561C14.3054 93.7561 37.714 93.7469 37.7435 93.7469C40.4901 93.7469 42.7272 91.5116 42.7272 88.7632C42.7272 87.3955 42.1735 86.157 41.2801 85.2562C42.12 84.409 42.6589 83.2664 42.7198 81.9965H44.5897V82.9951C44.5897 89.3392 49.7506 94.5 56.0946 94.5H82.3939C88.738 94.5 93.8988 89.3392 93.8988 82.9951V42.7304C93.899 36.3863 88.738 31.2255 82.3939 31.2255ZM70.638 13.4946C70.638 13.4946 70.6399 13.4946 70.6417 13.4983C70.6435 13.4983 70.6435 13.4983 70.6435 13.4983C70.6454 13.5019 70.649 13.5056 70.6509 13.5074L70.6527 13.5093C70.6564 13.5148 70.66 13.5184 70.6637 13.5203C70.6656 13.5221 70.6674 13.524 70.6692 13.5276C70.6711 13.5295 70.6729 13.5295 70.6729 13.5313C70.6747 13.5331 70.6766 13.5331 70.6784 13.5368C70.6821 13.5386 70.6839 13.5423 70.6858 13.5442H63.2858V5.72177C69.0857 11.8518 70.3926 13.2342 70.638 13.4946ZM16.2585 58.6765H37.7437C38.8623 58.6765 39.7741 59.5884 39.7741 60.7068C39.7741 61.8273 38.8622 62.7372 37.7437 62.7372H16.2585C15.1398 62.7372 14.2281 61.8273 14.2281 60.7068C14.2279 59.5882 15.1398 58.6765 16.2585 58.6765ZM16.2585 65.6905H37.7437C38.8623 65.6905 39.7741 66.6024 39.7741 67.7208C39.7741 68.8413 38.8622 69.7512 37.7437 69.7512H22.9033C22.2996 69.4743 21.6739 69.2491 21.0334 69.0756C20.0772 68.8152 19.0878 68.6676 18.0801 68.6417C17.7904 68.6344 17.5005 68.6362 17.2108 68.6491H14.455C14.3093 68.3704 14.2279 68.0548 14.2279 67.7206C14.2279 66.6024 15.1398 65.6905 16.2585 65.6905ZM39.7741 74.735C39.7741 75.8555 38.8622 76.7654 37.7437 76.7654H29.48C28.9189 75.272 28.0735 73.8969 26.9734 72.7047H37.7437C38.8622 72.7047 39.7741 73.6164 39.7741 74.735ZM9.07445 72.0845C8.17557 72.9373 7.3762 73.9505 6.74868 75.0673H5.02841C6.15255 73.6737 7.54988 72.6825 9.07445 72.0845ZM3.45758 77.8359H5.60801C5.56009 78.0427 5.31628 78.8382 5.20557 80.0492H2.93342C3.02209 79.2887 3.19743 78.5466 3.45758 77.8359ZM3.6957 85.1547C3.36909 84.4126 3.13464 83.6283 3.00171 82.8179H5.25735C5.66162 85.1105 5.68365 84.7154 5.78518 85.1547H3.6957ZM5.53788 87.9233C6.4441 87.9215 6.97028 87.927 7.09384 87.9196C7.64572 88.7908 8.31014 89.5975 9.07995 90.3229C7.74174 89.7969 6.55132 88.994 5.53788 87.9233ZM18.1374 90.9893C12.7348 91.2219 8.1607 87.0375 7.93176 81.6218C7.56071 73.0001 17.8585 68.0348 24.3428 73.9874C30.7352 79.8553 26.8441 90.6311 18.1374 90.9893ZM37.7437 90.7936H25.8254C27.145 89.6768 28.2286 88.2943 28.9982 86.7329H37.7437C38.8623 86.7329 39.7741 87.6448 39.7741 88.7632C39.7741 89.8835 38.8622 90.7936 37.7437 90.7936ZM39.7575 81.9965C39.6356 83.0006 38.7792 83.7796 37.7437 83.7796H30.0172C30.2848 82.4987 30.3605 81.1179 30.1962 79.7189H37.7437C38.9877 79.7187 39.9162 80.8318 39.7575 81.9965ZM44.5897 79.0431H41.9243C41.738 78.7533 41.5219 78.4857 41.2801 78.242C43.2089 76.2965 43.2108 73.1734 41.2801 71.228C42.1735 70.3273 42.7272 69.0888 42.7272 67.721C42.7272 66.3532 42.1735 65.1147 41.2801 64.214C44.3847 61.0835 42.1661 55.7233 37.7435 55.7233H21.0334V9.13845C21.0334 6.00432 23.5842 3.45329 26.7185 3.45329H60.3327V15.021C60.3327 15.8369 60.9935 16.4976 61.8094 16.4976H72.4892C72.7974 17.6937 72.6072 17.2986 72.6645 31.2253H56.0946C49.7506 31.2253 44.5897 36.3862 44.5897 42.7302V79.0431ZM91.1302 82.9951C91.1302 87.8126 87.2116 91.7314 82.3939 91.7314H56.0948C51.2792 91.7314 47.3585 87.8128 47.3585 82.9951V42.7304C47.3585 37.9129 51.279 33.9941 56.0948 33.9941H82.3941C87.2116 33.9941 91.1304 37.9127 91.1304 42.7304V82.9951H91.1302Z" fill="white"/>
<path d="M82.2961 37.134H56.1926C53.6258 37.134 51.5449 39.2149 51.5449 41.7817V46.8485C51.5449 49.4154 53.6258 51.4962 56.1926 51.4962H61.215C61.9795 51.4962 62.5993 50.8764 62.5993 50.1119C62.5993 49.3474 61.9795 48.7276 61.215 48.7276H56.1926C55.1591 48.7276 54.3135 47.882 54.3135 46.8485V41.7817C54.3135 40.7483 55.1591 39.9026 56.1926 39.9026H82.2961C83.3334 39.9026 84.1752 40.7462 84.1752 41.7817V46.8485C84.1752 47.884 83.3334 48.7276 82.2961 48.7276H67.1845C66.4201 48.7276 65.8002 49.3474 65.8002 50.1119C65.8002 50.8764 66.4201 51.4962 67.1845 51.4962H82.2961C84.86 51.4962 86.9438 49.4104 86.9438 46.8485V41.7817C86.9438 39.2198 84.8598 37.134 82.2961 37.134Z" fill="white"/>
<path d="M59.1736 66.3047H54.4428C52.8461 66.3047 51.5449 67.6042 51.5449 69.2025V73.9315C51.5449 75.5301 52.8462 76.8294 54.4428 76.8294H59.1736C60.7722 76.8294 62.0715 75.5299 62.0715 73.9315V69.2025C62.0715 67.6042 60.772 66.3047 59.1736 66.3047ZM59.3027 73.9315C59.3027 74.0035 59.2436 74.0608 59.1734 74.0608H54.4426C54.3725 74.0608 54.3133 74.0035 54.3133 73.9315V69.2025C54.3133 69.1306 54.3725 69.0733 54.4426 69.0733H59.1734C59.2436 69.0733 59.3027 69.1306 59.3027 69.2025V73.9315Z" fill="white"/>
<path d="M84.1962 53.9382H79.4672C77.8686 53.9382 76.5693 55.2377 76.5693 56.8361V61.5651C76.5693 63.1636 77.8688 64.4629 79.4672 64.4629H84.1962C85.7947 64.4629 87.094 63.1634 87.094 61.5651V56.8361C87.094 55.2377 85.7946 53.9382 84.1962 53.9382ZM84.3254 61.5651C84.3254 61.6371 84.2682 61.6943 84.1962 61.6943H79.4672C79.397 61.6943 79.3379 61.6371 79.3379 61.5651C79.3952 56.886 79.2179 56.7068 79.4672 56.7068H84.1962C84.2682 56.7068 84.3254 56.7641 84.3254 56.8361V61.5651Z" fill="white"/>
<path d="M59.1736 53.9382H54.4428C52.8461 53.9382 51.5449 55.2377 51.5449 56.8361V61.5651C51.5449 63.1636 52.8462 64.4629 54.4428 64.4629H59.1736C60.7722 64.4629 62.0715 63.1634 62.0715 61.5651V56.8361C62.0715 55.2377 60.772 53.9382 59.1736 53.9382ZM59.3027 61.5651C59.3027 61.6371 59.2436 61.6943 59.1734 61.6943H54.4426C54.3725 61.6943 54.3133 61.6371 54.3133 61.5651V56.8361C54.3133 56.7641 54.3725 56.7068 54.4426 56.7068H59.1734C59.2436 56.7068 59.3027 56.7641 59.3027 56.8361V61.5651Z" fill="white"/>
<path d="M61.3434 79.0428C60.8117 78.4448 60.0366 78.0664 59.1746 78.0664H54.4438C53.5818 78.0664 52.8065 78.4448 52.2768 79.0428C51.2709 80.1706 51.6124 81.3999 51.5459 81.996V85.6933C51.5459 87.2918 52.8473 88.5911 54.4438 88.5911H59.1746C60.7732 88.5911 62.0725 87.2916 62.0725 85.6933V81.996C62.006 81.413 62.3438 80.1706 61.3434 79.0428ZM59.1746 85.8225C54.5011 85.7652 54.3145 85.9426 54.3145 85.6933C54.3145 80.6856 54.2591 80.835 54.4438 80.835H59.1746C59.4017 80.835 59.2615 81.1506 59.3039 81.996C59.3039 81.996 59.4238 85.8225 59.1746 85.8225Z" fill="white"/>
<path d="M83.4607 66.3047H80.2009C78.1983 66.3047 76.5684 67.9346 76.5684 69.9373V84.6244C76.5684 86.8117 78.3478 88.5911 80.5333 88.5911H83.1285C85.3159 88.5911 87.0934 86.8117 87.0934 84.6244V69.9373C87.0932 67.9346 85.4653 66.3047 83.4607 66.3047ZM83.1285 85.8224H80.5333C79.8743 85.8224 79.3371 85.2852 79.3371 84.6244V69.9373C79.3371 69.461 79.7247 69.0735 80.2009 69.0735H83.4607C83.9369 69.0735 84.3245 69.461 84.3245 69.9373V84.6244C84.3246 85.2852 83.7893 85.8224 83.1285 85.8224Z" fill="white"/>
<path d="M35.7361 40.7123C34.0481 40.0921 32.8287 39.6441 32.8287 38.0803C32.8287 36.655 33.7753 35.9324 35.6419 35.9324C37.6234 35.9324 38.1569 36.8047 38.8549 36.8047C39.6147 36.8047 40.0349 35.9985 40.0349 35.4409C40.0349 34.2876 38.1536 33.7157 36.4719 33.5648V32.5249C36.4719 31.8016 35.8835 31.2131 35.1601 31.2131C34.4368 31.2131 33.8483 31.8016 33.8483 32.5249V33.7306C31.5488 34.2766 30.2853 35.8648 30.2853 38.2182C30.2853 41.4402 32.6574 42.3316 34.5638 43.0481C36.4302 43.7495 37.9047 44.3036 37.9047 46.4345C37.9047 48.1946 36.9274 49.0871 34.9995 49.0871C32.178 49.0871 32.1516 47.1821 31.0753 47.1821C30.4089 47.1821 29.8721 47.9282 29.8721 48.5459C29.8721 49.6368 31.4967 51.0706 33.8483 51.4428V52.4476C33.8483 53.1709 34.4368 53.7594 35.1601 53.7594C35.8835 53.7594 36.4719 53.1709 36.4719 52.4476V51.4158C39.0015 50.9397 40.4482 49.0823 40.4482 46.2966C40.448 42.4436 37.8354 41.4837 35.7361 40.7123Z" fill="white"/>
<path d="M73.6191 78.8786C73.0986 78.3765 72.3898 78.0664 71.6108 78.0664H66.8799C66.018 78.0664 65.2427 78.4448 64.7112 79.0428C63.7089 80.1724 64.0486 81.3999 63.9821 81.996V85.6933C63.9821 87.2918 65.2816 88.5911 66.8799 88.5911H71.6108C73.2075 88.5911 74.5068 87.2916 74.5068 85.6933V80.9624C74.5068 80.1449 74.1653 79.4046 73.6191 78.8786ZM71.6108 85.8225C66.9372 85.7652 66.7507 85.9426 66.7507 85.6933V80.9624C66.7507 80.8923 66.8098 80.835 66.8799 80.835H71.6108C71.6809 80.835 71.7382 80.8923 71.7382 80.9624C71.6828 85.6472 71.8563 85.8225 71.6108 85.8225Z" fill="white"/>
<path d="M71.6111 53.9382H66.8803C65.2817 53.9382 63.9824 55.2377 63.9824 56.8361V61.5651C63.9824 63.1636 65.2819 64.4629 66.8803 64.4629H71.6111C71.984 64.4629 72.3383 64.3928 72.6651 64.2635C73.743 63.8409 74.5073 62.7906 74.5073 61.5649V56.8359C74.5071 55.232 73.2003 53.9382 71.6111 53.9382ZM71.6111 61.6943H66.8803C66.8101 61.6943 66.751 61.6371 66.751 61.5651V56.8361C66.751 56.5869 66.9227 56.7623 71.6111 56.7068C71.6812 56.7068 71.7385 56.7641 71.7385 56.8361V61.5651C71.7385 61.6371 71.6812 61.6943 71.6111 61.6943Z" fill="white"/>
<path d="M72.6651 66.5041C72.3385 66.3748 71.984 66.3047 71.6111 66.3047H66.8803C65.2817 66.3047 63.9824 67.6042 63.9824 69.2025V73.9315C63.9824 75.5301 65.2819 76.8294 66.8803 76.8294H71.6111C73.2078 76.8294 74.5071 75.5299 74.5071 73.9315V69.2025C74.5071 67.977 73.743 66.9267 72.6651 66.5041ZM71.7385 73.9315C71.7385 74.0035 71.6812 74.0608 71.6111 74.0608H66.8803C66.8101 74.0608 66.751 74.0035 66.751 73.9315V69.2025C66.751 69.1306 66.8101 69.0733 66.8803 69.0733H71.6111C71.6812 69.0733 71.7385 69.1306 71.7385 69.2025V73.9315Z" fill="white"/>
<path d="M63.6205 19.418H60.1431C59.379 19.418 58.7588 20.0381 58.7588 20.8023C58.7588 21.5682 59.379 22.1866 60.1431 22.1866H63.6205C64.3847 22.1866 65.0048 21.5682 65.0048 20.8023C65.005 20.0381 64.3847 19.418 63.6205 19.418Z" fill="white"/>
<path d="M54.6054 19.418H30.0562C29.2921 19.418 28.6719 20.0381 28.6719 20.8023C28.6719 21.5682 29.2921 22.1866 30.0562 22.1866H54.6056C55.3697 22.1866 55.9899 21.5682 55.9899 20.8023C55.9899 20.0381 55.3697 19.418 54.6054 19.418Z" fill="white"/>
<path d="M34.4565 26.29H30.0562C29.2921 26.29 28.6719 26.9102 28.6719 27.6743C28.6719 28.4385 29.2921 29.0586 30.0562 29.0586H34.4565C35.2207 29.0586 35.8408 28.4385 35.8408 27.6743C35.8408 26.9102 35.2207 26.29 34.4565 26.29Z" fill="white"/>
<path d="M63.6202 26.29H39.9937C39.2296 26.29 38.6094 26.9102 38.6094 27.6743C38.6094 28.4385 39.2296 29.0586 39.9937 29.0586H63.6202C64.3843 29.0586 65.0045 28.4385 65.0045 27.6743C65.0046 26.9102 64.3843 26.29 63.6202 26.29Z" fill="white"/>
<path d="M16.9335 78.5566C16.9335 78.2086 17.0617 78.1088 17.1816 78.0423C17.5535 77.8365 18.4069 77.7759 19.1886 78.178C19.3963 78.2846 19.6316 78.4056 19.9379 78.4056C21.3032 78.4056 22.3831 75.8686 19.1216 75.3077V75.2205C19.1216 74.447 18.4922 73.8176 17.7188 73.8176C16.9453 73.8176 16.3159 74.447 16.3159 75.2205V75.4867C14.9493 75.9824 14.1761 77.1095 14.1761 78.6393C14.1761 81.0004 15.8915 81.645 17.1443 82.1155C18.3389 82.5644 18.752 82.7608 18.752 83.5734C18.752 84.0814 18.6152 84.5516 17.6222 84.5516C16.1751 84.5516 16.3484 83.4078 15.2654 83.4078C14.5 83.4078 13.9277 84.1648 13.9277 84.8417C13.9277 85.8008 14.925 86.7111 16.3159 87.0801V87.1851C16.3159 87.9586 16.9453 88.5879 17.7188 88.5879C18.4922 88.5879 19.1216 87.9588 19.1216 87.1851V87.0434C20.6267 86.5596 21.5096 85.2636 21.5096 83.4908C21.5096 79.2841 16.9335 79.9159 16.9335 78.5566Z" fill="white"/>
</g>
<defs>
<clipPath id="clip0_505_1635">
<rect width="94" height="94" fill="white" transform="translate(0 0.5)"/>
</clipPath>
</defs>
</svg>
