<svg width="21" height="20" viewBox="0 0 21 20" fill="none" xmlns="http://www.w3.org/2000/svg">
<path d="M10.5003 1.66501C15.1037 1.66501 18.8353 5.39668 18.8353 10C18.8353 14.6025 15.1037 18.3333 10.5003 18.3333C5.89699 18.3342 2.16699 14.6025 2.16699 10C2.16616 5.39668 5.89699 1.66501 10.5003 1.66501ZM10.5003 2.91501C9.5635 2.90485 8.63396 3.08059 7.76551 3.43207C6.89706 3.78354 6.10693 4.30377 5.44088 4.96265C4.77482 5.62152 4.24605 6.40595 3.88518 7.27054C3.5243 8.13513 3.33849 9.06271 3.33849 9.99959C3.33849 10.9365 3.5243 11.8641 3.88518 12.7286C4.24605 13.5932 4.77482 14.3777 5.44088 15.0365C6.10693 15.6954 6.89706 16.2156 7.76551 16.5671C8.63396 16.9186 9.5635 17.0943 10.5003 17.0842C12.366 17.0639 14.1483 16.3086 15.4604 14.9822C16.7725 13.6558 17.5085 11.8653 17.5085 9.99959C17.5085 8.13384 16.7725 6.3434 15.4604 5.01698C14.1483 3.69056 12.366 2.93524 10.5003 2.91501ZM10.497 8.74834C10.6482 8.74815 10.7943 8.80275 10.9083 8.90204C11.0223 9.00133 11.0964 9.13857 11.117 9.28834L11.1228 9.37334L11.1262 13.9583C11.1278 14.1178 11.0684 14.2719 10.9601 14.389C10.8518 14.5061 10.7029 14.5774 10.5438 14.5882C10.3846 14.5991 10.2274 14.5487 10.1042 14.4474C9.98102 14.3461 9.90123 14.2016 9.88116 14.0433L9.87616 13.9592L9.87283 9.37418C9.87283 9.20842 9.93867 9.04944 10.0559 8.93223C10.1731 8.81502 10.3321 8.74918 10.4978 8.74918L10.497 8.74834ZM10.5012 5.83418C10.6126 5.83065 10.7237 5.84956 10.8277 5.88979C10.9318 5.93001 11.0267 5.99074 11.1068 6.06835C11.1869 6.14597 11.2506 6.23889 11.2941 6.3416C11.3376 6.44431 11.36 6.55472 11.36 6.66626C11.36 6.7778 11.3376 6.88821 11.2941 6.99092C11.2506 7.09363 11.1869 7.18655 11.1068 7.26416C11.0267 7.34178 10.9318 7.4025 10.8277 7.44273C10.7237 7.48296 10.6126 7.50187 10.5012 7.49834C10.285 7.4915 10.0801 7.40084 9.92959 7.24554C9.77913 7.09024 9.69499 6.88249 9.69499 6.66626C9.69499 6.45003 9.77913 6.24228 9.92959 6.08698C10.0801 5.93168 10.285 5.84102 10.5012 5.83418Z" fill="white"/>
</svg>
